<svg width="728" height="229" viewBox="0 0 728 229" fill="none" xmlns="http://www.w3.org/2000/svg">
<path d="M210.397 50.9696C210.397 42.9173 216.156 36.6711 224.717 36.6711C233.279 36.6711 239.038 42.5975 239.038 50.4804C239.038 59.0219 233.279 65.2681 224.717 65.2681C216.156 65.2681 210.397 59.0219 210.397 50.9696ZM213.201 77.5911H236.217V166.035H213.201V77.5911Z" fill="#595A5C"/>
<path d="M254.217 108.728C254.217 74.4116 278.213 49.013 310.94 49.013C343.666 49.013 367.663 74.2611 367.663 108.728C367.663 143.195 343.531 168.443 310.94 168.443C278.348 168.443 254.217 143.044 254.217 108.728ZM343.362 108.728C343.362 86.7911 329.448 71.7777 310.94 71.7777C292.432 71.7777 278.517 86.7911 278.517 108.728C278.517 130.665 292.432 145.678 310.94 145.678C329.448 145.678 343.362 130.665 343.362 108.728Z" fill="#F27024"/>
<path d="M475.586 92.8868C475.586 118.624 458.26 134.635 430.566 134.635H409.693V166.468H385.697V50.9696H430.566C458.26 50.9696 475.586 66.9802 475.586 92.868V92.8868ZM451.303 92.8868C451.303 80.1875 443.906 72.756 429.232 72.756H409.693V112.848H429.232C443.889 112.848 451.303 105.417 451.303 92.8868Z" fill="#F27024"/>
<path d="M574.358 145.02V166.468H494.095V50.9696H572.433V72.4174H517.939V97.4962H566.066V118.285H517.939V145.02H574.358V145.02Z" fill="#F27024"/>
<path d="M658.758 166.468L633.731 126.375L609.144 166.468H581.602L619.952 107.731L583.527 50.9696H610.782L634.626 88.4279L658.031 50.9696H683.953L647.815 106.734L686.469 166.449H658.774L658.758 166.468Z" fill="#F27024"/>
<path fill-rule="evenodd" clip-rule="evenodd" d="M110.058 49.5398V57.3852C78.9016 57.3852 57.4215 75.2959 57.4215 115.294C57.4215 155.292 78.4625 173.353 110.058 173.203V181.048C65.4597 181.048 29.2881 151.605 29.2881 115.313C29.2881 79.021 65.4597 49.5398 110.058 49.5398ZM110.058 49.5398C154.656 49.5398 190.828 78.9834 190.828 115.294C190.828 151.605 154.656 181.03 110.058 181.03V173.184C141.653 173.034 162.846 156.214 162.694 115.275C162.542 74.3364 141.214 57.3852 110.058 57.3664V49.521V49.5398Z" fill="#F27024"/>
<path d="M144.757 200.257V205.13H75.3694V200.257H81.1109C87.7981 200.257 92.6447 198.075 95.6505 193.748C97.5587 190.944 98.5382 184.115 98.5382 173.353V57.2535C98.5382 48.1664 98.0147 42.146 96.9846 39.2487C96.174 37.0286 94.536 35.1284 92.0874 33.5481C88.5918 31.4221 84.9105 30.3873 81.0941 30.3873H75.3525V25.4581H144.741V30.3873H138.881C132.278 30.3873 127.482 32.5509 124.459 36.8593C122.467 39.7002 121.437 46.492 121.437 57.2535V173.353C121.437 182.441 121.96 188.461 122.99 191.339C123.801 193.56 125.473 195.46 127.989 197.04C131.417 199.166 135.031 200.257 138.864 200.257H144.724H144.757Z" fill="#595A5C"/>
</svg>
